{
    "asset" : {
        "generator" : "Khronos glTF Blender I/O v1.0.5",
        "version" : "2.0"
    },
    "scene" : 0,
    "scenes" : [
        {
            "name" : "Scene",
            "nodes" : [
                0
            ]
        }
    ],
    "nodes" : [
        {
            "mesh" : 0,
            "name" : "White Piece"
        }
    ],
    "materials" : [
        {
            "doubleSided" : true,
            "name" : "WhitePiece",
            "normalTexture" : {
                "index" : 0,
                "scale" : 0.4000000059604645,
                "texCoord" : 0
            },
            "pbrMetallicRoughness" : {
                "baseColorTexture" : {
                    "index" : 1,
                    "texCoord" : 0
                },
                "metallicFactor" : 0,
                "metallicRoughnessTexture" : {
                    "index" : 2,
                    "texCoord" : 0
                }
            }
        }
    ],
    "meshes" : [
        {
            "name" : "Sphere.003",
            "primitives" : [
                {
                    "attributes" : {
                        "POSITION" : 0,
                        "NORMAL" : 1,
                        "TEXCOORD_0" : 2
                    },
                    "indices" : 3,
                    "material" : 0
                }
            ]
        }
    ],
    "textures" : [
        {
            "source" : 0
        },
        {
            "source" : 1
        },
        {
            "source" : 2
        }
    ],
    "images" : [
        {
            "mimeType" : "image/png",
            "name" : "WhitePieceProcNormal",
            "uri" : "WhitePieceProcNormal.png"
        },
        {
            "mimeType" : "image/png",
            "name" : "WhitePieceProcDiff",
            "uri" : "WhitePieceProcDiff.png"
        },
        {
            "mimeType" : "image/png",
            "name" : "WhitePieceProcRoughness",
            "uri" : "WhitePieceProcRoughness.png"
        }
    ],
    "accessors" : [
        {
            "bufferView" : 0,
            "componentType" : 5126,
            "count" : 633,
            "max" : [
                0.28320613503456116,
                0.14762917160987854,
                0.28320619463920593
            ],
            "min" : [
                -0.28320610523223877,
                -0.0031156055629253387,
                -0.283206045627594
            ],
            "type" : "VEC3"
        },
        {
            "bufferView" : 1,
            "componentType" : 5126,
            "count" : 633,
            "type" : "VEC3"
        },
        {
            "bufferView" : 2,
            "componentType" : 5126,
            "count" : 633,
            "type" : "VEC2"
        },
        {
            "bufferView" : 3,
            "componentType" : 5123,
            "count" : 2880,
            "type" : "SCALAR"
        }
    ],
    "bufferViews" : [
        {
            "buffer" : 0,
            "byteLength" : 7596,
            "byteOffset" : 0
        },
        {
            "buffer" : 0,
            "byteLength" : 7596,
            "byteOffset" : 7596
        },
        {
            "buffer" : 0,
            "byteLength" : 5064,
            "byteOffset" : 15192
        },
        {
            "buffer" : 0,
            "byteLength" : 5760,
            "byteOffset" : 20256
        }
    ],
    "buffers" : [
        {
            "byteLength" : 26016,
            "uri" : "WhitePiece.bin"
        }
    ]
}
