<?xml version="1.0" encoding="UTF-8" standalone="no"?><!DOCTYPE svg PUBLIC "-//W3C//DTD SVG 1.1//EN" "http://www.w3.org/Graphics/SVG/1.1/DTD/svg11.dtd"><svg width="100%" height="100%" viewBox="0 0 110 45" version="1.1" xmlns="http://www.w3.org/2000/svg" xmlns:xlink="http://www.w3.org/1999/xlink" xml:space="preserve" xmlns:serif="http://www.serif.com/" style="fill-rule:evenodd;clip-rule:evenodd;stroke-linejoin:round;stroke-miterlimit:2;"><path d="M1.374,44.9l44.9,-44.9l2.828,0l-45,45l-2.102,0c-0.219,0 -0.429,-0.035 -0.626,-0.1Zm8.385,0.1l-2.828,0l45,-45l2.828,0l-45,45Zm5.657,0l-2.829,0l45,-45l2.829,0l-45,45Zm5.657,0l-2.829,0l45,-45l2.829,0l-45,45Zm5.657,0l-2.829,0l45,-45l2.829,0l-45,45Zm5.656,0l-2.828,0l45,-45l2.828,0l-45,45Zm5.657,0l-2.828,0l45,-45l2.828,0l-45,45Zm5.657,0l-2.828,0l45,-45l2.828,0l-45,45Zm5.657,0l-2.828,0l45,-45l2.828,0l-45,45Zm5.657,0l-2.829,0l45,-45l2.829,0l-45,45Zm5.657,0l-2.829,0l45,-45l2.829,0l-45,45Zm47.778,-44.949c0.698,0.16 1.257,0.685 1.464,1.364l-43.585,43.585l-2.829,0l44.95,-44.949Zm1.551,6.933l-38.016,38.016l-2.828,0l40.844,-40.844l0,2.828Zm0,5.657l-32.359,32.359l-2.828,0l35.187,-35.187l0,2.828Zm0,5.657l-26.702,26.702l-2.828,0l29.53,-29.53l0,2.828Zm0,5.657l-21.045,21.045l-2.828,0l23.873,-23.873l0,2.828Zm0,5.657l-15.388,15.388l-2.829,0l18.217,-18.217l0,2.829Zm0,5.657l-9.731,9.731l-2.829,0l12.56,-12.56l0,2.829Zm0,5.657l-4.074,4.074l-2.829,0l6.903,-6.903l0,2.829Zm-0.3,3.128c-0.163,0.262 -0.384,0.483 -0.646,0.646l0.646,-0.646Zm-109.7,-3.437l40.617,-40.617l2.828,0l-43.404,43.404c-0.027,-0.13 -0.041,-0.265 -0.041,-0.404l0,-2.383Zm0,-2.829l0,-2.828l34.96,-34.96l2.828,0l-37.788,37.788Zm0,-5.656l0,-2.829l29.303,-29.303l2.829,0l-32.132,32.132Zm0,-5.657l0,-2.829l23.646,-23.646l2.829,0l-26.475,26.475Zm0,-5.657l0,-2.829l17.989,-17.989l2.829,0l-20.818,20.818Zm0,-5.657l0,-2.828l12.333,-12.333l2.828,0l-15.161,15.161Zm0,-5.657l0,-2.828l6.676,-6.676l2.828,0l-9.504,9.504Zm3.847,-9.504l-3.847,3.847l0,-1.847c0,-1.105 0.895,-2 2,-2l1.847,0Z" style="fill:#1a32e6;"/></svg>