<?xml version="1.0" encoding="UTF-8" standalone="no"?>
<!DOCTYPE svg PUBLIC "-//W3C//DTD SVG 1.1//EN" "http://www.w3.org/Graphics/SVG/1.1/DTD/svg11.dtd">
<svg width="100%" height="100%" viewBox="0 0 880 360" version="1.1" xmlns="http://www.w3.org/2000/svg" xmlns:xlink="http://www.w3.org/1999/xlink" xml:space="preserve" xmlns:serif="http://www.serif.com/" style="fill-rule:evenodd;clip-rule:evenodd;stroke-linejoin:round;stroke-miterlimit:2;">
    <path d="M864.207,0.001C872.447,0.158 879.835,7.166 879.999,15.793C880.691,125.193 880,234.598 880,344C879.947,352.315 872.834,359.835 864.207,359.999C581.477,361.788 298.736,360 16,360C7.685,359.947 0.165,352.834 0.001,344.207C-0.691,234.807 0,125.402 0,16C0.053,7.685 7.166,0.165 15.793,0.001C298.592,-1.789 581.408,-1.789 864.207,0.001ZM792.489,7.621L446.766,353.344C454.311,353.343 461.855,353.341 469.4,353.338L815.013,7.725C807.505,7.688 799.997,7.654 792.489,7.621ZM747.404,7.452L401.522,353.334L413.493,353.34L424.14,353.343L769.953,7.53L758.097,7.487L747.404,7.452ZM837.522,7.843L492.041,353.324C499.591,353.319 507.14,353.311 514.69,353.303L860.017,7.976C852.519,7.929 845.021,7.885 837.522,7.843ZM702.271,7.33L356.309,353.292C363.843,353.302 371.377,353.31 378.912,353.317L724.843,7.385C717.319,7.365 709.795,7.347 702.271,7.33ZM872.015,18.605L537.347,353.274C544.901,353.263 552.456,353.25 560.011,353.237L872.143,41.105C872.104,33.605 872.062,26.105 872.015,18.605ZM657.094,7.252L311.126,353.22L320.719,353.238L333.713,353.26L679.688,7.286C672.156,7.273 664.625,7.262 657.094,7.252ZM872.252,63.624L582.683,353.192C590.243,353.176 597.803,353.159 605.363,353.14L872.341,86.161C872.315,78.649 872.285,71.136 872.252,63.624ZM611.879,7.213L265.973,353.118C273.497,353.138 281.022,353.156 288.546,353.173L634.491,7.228C626.953,7.221 619.416,7.216 611.879,7.213ZM872.412,108.718L628.05,353.08L638.801,353.049L650.745,353.012L872.463,131.295C872.449,123.769 872.432,116.244 872.412,108.718ZM589.258,7.206C581.715,7.205 574.172,7.205 566.629,7.207L220.851,352.985C228.37,353.01 235.889,353.033 243.408,353.055L589.258,7.206ZM872.494,153.89L673.448,352.937C681.018,352.91 688.588,352.883 696.159,352.854L872.507,176.505C872.506,168.967 872.502,161.429 872.494,153.89ZM532.827,7.222L521.351,7.23L175.759,352.822L188.186,352.87L198.302,352.907L543.994,7.215L532.827,7.222ZM872.501,199.139L718.877,352.763L731.574,352.709L741.603,352.664L872.475,221.792C872.487,214.241 872.495,206.69 872.501,199.139ZM498.703,7.251C491.151,7.259 483.6,7.268 476.049,7.278L130.698,352.629C138.207,352.664 145.716,352.697 153.225,352.729L498.703,7.251ZM872.429,244.466L764.337,352.557C771.917,352.521 779.498,352.483 787.078,352.443L872.364,267.158C872.389,259.594 872.41,252.03 872.429,244.466ZM440.068,7.329L430.727,7.345L85.667,352.405L95.413,352.456L108.178,352.521L453.39,7.31L440.068,7.329ZM872.279,289.87L809.828,352.321C817.414,352.28 824.999,352.236 832.585,352.191L872.176,312.601C872.214,305.024 872.248,297.447 872.279,289.87ZM387.062,7.422L385.391,7.426L40.665,352.152C48.164,352.196 55.663,352.24 63.162,352.282L408.061,7.384L387.062,7.422ZM872.052,335.352L855.35,352.054L864.106,351.999C868.242,351.921 871.916,348.405 871.999,344.105L872.052,335.352ZM360.56,7.474L340.046,7.516L7.973,339.589L8.001,344.106C8.079,348.232 11.602,351.918 15.894,351.999L18.176,352.013L362.72,7.47L360.56,7.474ZM7.844,317.09L317.371,7.563L294.696,7.611L7.735,294.573C7.768,302.078 7.804,309.584 7.844,317.09ZM254.549,7.695L249.347,7.705L7.575,249.478C7.595,256.997 7.618,264.516 7.645,272.035L272.021,7.659L254.549,7.695ZM7.524,226.901L226.674,7.751L204.003,7.795L7.493,204.304C7.5,211.837 7.511,219.369 7.524,226.901ZM175.041,7.847L158.67,7.873L7.49,159.053C7.484,166.598 7.481,174.143 7.482,181.689L181.335,7.835L175.041,7.847ZM136.008,7.908C128.455,7.918 120.903,7.928 113.351,7.937L7.567,113.721C7.547,121.28 7.531,128.838 7.518,136.397L136.008,7.908ZM90.699,7.962C83.15,7.969 75.601,7.976 68.052,7.981L7.722,68.311C7.69,75.883 7.66,83.455 7.635,91.026L90.699,7.962ZM45.412,7.994C37.868,7.997 30.323,7.999 22.779,7.999L7.958,22.82C7.912,30.405 7.87,37.991 7.83,45.576L45.412,7.994Z" style="fill:rgb(26,50,230);"/>
</svg>
