<?xml version="1.0" encoding="UTF-8" standalone="no"?>
<!DOCTYPE svg PUBLIC "-//W3C//DTD SVG 1.1//EN" "http://www.w3.org/Graphics/SVG/1.1/DTD/svg11.dtd">
<svg width="100%" height="100%" viewBox="0 0 110 45" version="1.1" xmlns="http://www.w3.org/2000/svg" xmlns:xlink="http://www.w3.org/1999/xlink" xml:space="preserve" xmlns:serif="http://www.serif.com/" style="fill-rule:evenodd;clip-rule:evenodd;stroke-linejoin:round;stroke-miterlimit:2;">
    <g id="Stripes" transform="matrix(0.125,0,0,0.125,0,0)">
        <path d="M880,16C880,7.163 872.837,0 864,0C755.177,0 124.823,0 16,0C7.163,0 0,7.163 0,16C0,75.607 0,284.393 0,344C0,352.837 7.163,360 16,360C124.823,360 755.177,360 864,360C872.837,360 880,352.837 880,344C880,284.393 880,75.607 880,16ZM18.19,352L362.19,8L339.562,8L8,339.562L8,344C8,346.122 8.843,348.157 10.343,349.657C11.843,351.157 13.878,352 16,352L18.19,352ZM384.817,8L40.817,352L63.445,352L407.445,8L384.817,8ZM430.072,8L86.072,352L108.699,352L452.699,8L430.072,8ZM475.327,8L131.327,352L153.954,352L497.954,8L475.327,8ZM520.582,8L176.582,352L199.209,352L543.209,8L520.582,8ZM565.836,8L221.836,352L244.464,352L588.464,8L565.836,8ZM611.091,8L267.091,352L289.719,352L633.719,8L611.091,8ZM656.346,8L312.346,352L334.974,352L678.974,8L656.346,8ZM701.601,8L357.601,352L380.228,352L724.228,8L701.601,8ZM746.856,8L402.856,352L425.483,352L769.483,8L746.856,8ZM792.111,8L448.111,352L470.738,352L814.738,8L792.111,8ZM837.365,8L493.365,352L515.993,352L859.993,8L837.365,8ZM538.62,352L561.248,352L872,41.248L872,18.62L538.62,352ZM583.875,352L606.503,352L872,86.503L872,63.875L583.875,352ZM629.13,352L651.757,352L872,131.757L872,109.13L629.13,352ZM674.385,352L697.012,352L872,177.012L872,154.385L674.385,352ZM719.64,352L742.267,352L872,222.267L872,199.64L719.64,352ZM764.894,352L787.522,352L872,267.522L872,244.894L764.894,352ZM810.149,352L832.777,352L872,312.777L872,290.149L810.149,352ZM872,335.404L855.404,352L864,352C866.122,352 868.157,351.157 869.657,349.657C871.157,348.157 872,346.122 872,344L872,335.404ZM294.307,8L8,294.307L8,316.935L316.935,8L294.307,8ZM249.053,8L8,249.053L8,271.68L271.68,8L249.053,8ZM203.798,8L8,203.798L8,226.425L226.425,8L203.798,8ZM158.543,8L8,158.543L8,181.17L181.17,8L158.543,8ZM113.288,8L8,113.288L8,135.916L135.916,8L113.288,8ZM68.033,8L8,68.033L8,90.661L90.661,8L68.033,8ZM22.778,8L8,22.778L8,45.406L45.406,8L22.778,8Z" style="fill:rgb(26,50,230);"/>
    </g>
</svg>
